<svg xmlns="http://www.w3.org/2000/svg" width="64" height="96"><style>.o{fill:#FFE3AB}.u{fill:#F83800}.s{fill:#FFA347}</style><path class="o" fill-rule="evenodd" d="M5 18v1H4v1h9v-1h-3v-1H5zm1 7v1H5v2H4v2h3v-1h2v1h3v-2h-1v-2h-1v-1H9v1H7v-1H6zm0 1h1v1H6v-1zm3 0h1v1H9v-1z" clip-rule="evenodd"/><path class="s" fill-rule="evenodd" d="M10 20v2H9v-2H7v1H6v1h1v1H5v2h7v-1H9v-1h1v-1h1v1h3v-1h-1v-1h-2v-1h-1zm-4 6v1h1v-1H6zm3 0v1h1v-1H9zm-7 1v2h2v-1h1v-1H2zm9 0v1h1v1h2v-2h-3zm-7-6v2h1v-2H4z" clip-rule="evenodd"/><path class="u" fill-rule="evenodd" d="M3 21v3h2v-1h2v-1H6v-1h1v-1H4v1H3zm2 2H4v-2h1v2zm4-3v2h1v1H9v1h4v-1h-2v-1h-1v-2H9zm-7 6v1h3v-1h1v-1H3v1H2zm5-1v1h2v-1H7zm3 0v1h1v1h3v-1h-1v-1h-3zm-8 6v1h5v-2H3v1H2zm7-1v2h5v-1h-1v-1H9zM19 21v3h2v-1h2v-1h-1v-1h1v-1h-3v1h-1zm2 2h-1v-2h1v2zm4-3v2h1v1h-1v1h4v-1h-2v-1h-1v-2h-1zm-7 5v1h1v1h-1v1h1v-1h2v-1h1v-1h-4zm7 0v1h2v1h1v3h2v-4h-1v1h-1v-2h-3zm-7 4v2h1v1h3v-1h-1v-1h-2v-1h-1z" clip-rule="evenodd"/><path class="o" fill-rule="evenodd" d="M21 18v1h-1v1h9v-1h-3v-1h-5zm1 7v1h-1v1h-2v1h-1v1h1v1h3v-1h3v1h3v-3h-1v-1h-2v-1h-3zm1 1h1v1h-1v-1z" clip-rule="evenodd"/><path class="s" fill-rule="evenodd" d="M26 20v2h-1v-2h-2v1h-1v1h1v1h-2v-2h-1v2h1v2h7v-1h-3v-1h1v-1h1v1h3v-1h-1v-1h-2v-1h-1zm-10 5v3h2v-1h1v-1h-1v-1h-2zm7 1v1h1v-1h-1zm5-1v2h1v-1h1v1h1v-2h-3z" clip-rule="evenodd"/><path class="u" fill-rule="evenodd" d="M19 53v3h2v-1h2v-1h-1v-1h1v-1h-3v1h-1zm2 2h-1v-2h1v2zm4-3v2h1v1h-1v1h4v-1h-2v-1h-1v-2h-1zM19 57v3h1v1h1v-2h1v-1h1v-1h-4zm6 0v1h2v-1h-2zm-4 5v2h4v-1h3v-1h-1v-1h-3v1h-3z" clip-rule="evenodd"/><path class="s" fill-rule="evenodd" d="M26 52v2h-1v-2h-2v1h-1v1h1v1h-2v-2h-1v2h1v2h7v-1h-3v-1h1v-1h1v1h3v-1h-1v-1h-2v-1h-1zm-5 7v2h2v-1h1v-1h1v-1h-1v1h-3zm6-1v1h1v-1h-1z" clip-rule="evenodd"/><path class="u" fill-rule="evenodd" d="M19 86v3h2v-1h2v-1h-1v-1h1v-1h-3v1h-1zm2 2h-1v-2h1v2zm4-3v2h1v1h-1v1h4v-1h-2v-1h-1v-2h-1zm-5 5v1h1v1h2v1h3v-3h-1v1h-1v-1h-4zm2 4v2h4v-1h-1v-1h-3zm-5-1v2h1v-1h1v-2h-1v1h-1z" clip-rule="evenodd"/><path class="s" fill-rule="evenodd" d="M26 85v2h-1v-2h-2v1h-1v1h1v1h-2v-2h-1v2h1v2h6v1h-1v2h2v-1h1v-1h-1v-2h-3v-1h1v-1h1v1h3v-1h-1v-1h-2v-1h-1zm-8 6v1h2v-2h-1v1h-1z" clip-rule="evenodd"/><path class="o" fill-rule="evenodd" d="M21 83v1h-1v1h9v-1h-3v-1h-5zm-2 9v2h3v-1h1v1h3v-1h-3v-1h-2v-1h-1v1h-1zm5-2v1h1v-1h-1z" clip-rule="evenodd"/><path class="s" fill-rule="evenodd" d="M11 52v2h-1v-2H8v1H7v1h1v1H6v-2H5v2h1v2h7v-1h-3v-1h1v-1h1v1h3v-1h-1v-1h-2v-1h-1zM0 57v2h1v1h1v-1h1v-1H2v-1H0zm9 1v1h1v-1H9zm3 0v1h1v-1h-1zm1-9v2h1v1h2v-3h-3z" clip-rule="evenodd"/><path class="u" fill-rule="evenodd" d="M4 53v3H1v1h1v1h5v1h1v-1h1v-1H6v-2h2v-1H7v-1h1v-1H5v1H4zm2 2H5v-2h1v2zm4-3v2h1v1h-1v1h3v1h1v-1h1v2h-1v3h2v-5h-1v-1h1v-3h-3v1h1v1h1v1h-3v-1h-1v-2h-1zm0 5v1h2v-1h-2zm-9 4v2h1v-1h2v-1h1v-1H4v-1H3v1H2v1H1z" clip-rule="evenodd"/><path class="o" fill-rule="evenodd" d="M6 50v1H5v1h9v-1h-3v-1H6zm-2 8v2h1v1H4v2h4v-1h3v-1h3v-3h-1v-1h-1v1h-2v-1H9v1H8v1H7v-1H4zm9 1h-1v-1h1v1zm-3 0H9v-1h1v1z" clip-rule="evenodd"/><path class="u" fill-rule="evenodd" d="M33 12v2h2v1h2v-1h-1v-1h-1v-3h2v2h2v-1h-1V9h-3v1h-1v2h-1zm7-3v2h2v-1h-1V9h-1zm0 4v1h6v-1h-3v-1h-1v1h-2zm-4 3v1h-1v1h-1v1h-1v1h-1v2h4v-3h1v-3h-1zm2 0v4h4v-4h-4zm5 0v3h1v3h4v-2h-1v-1h-1v-1h-1v-1h-1v-1h-1zm-9 12v2h-2v2h6v-4h-4zm8 0v4h6v-2h-2v-2h-4z" clip-rule="evenodd"/><path class="o" fill-rule="evenodd" d="M35 8v1h11V8h-5V7h2V6h-5v1h-2v1h-1zm2 8v3h-1v5h-1v1h-1v1h-1v2h5v-1h1v-1h2v1h1v1h5v-2h-1v-1h-1v-1h-1v-5h-1v-3h-1v4h-4v-4h-1zm0 5h1v1h-1v-1zm5 0h1v1h-1v-1z" clip-rule="evenodd"/><path class="s" fill-rule="evenodd" d="M41 7v1h2V7h-2zm-3 2v2h1v1h-2v-2h-2v3h1v1h1v1h-1v1h7v-1h3v-1h-6v-1h2v-1h1v1h4v-2h-1v-1h-2V9h-3v1h1v1h-2V9h-2zm-6 13v2h1v1h2v-1h1v-2h-4zm12 0v2h1v1h2v-1h1v-2h-4zm-7-1v1h1v-1h-1zm5 0v1h1v-1h-1zM38 43v2h1v1h-2v-2h-2v3h1v1h1v1h-1v1h7v-1h3v-1h-6v-1h2v-1h1v1h4v-2h-1v-1h-2v-1h-3v1h1v1h-2v-2h-2zm-5 13v1h2v-1h1v-1h1v-2h-1v-1h-2v1h-1v1h-1v2h1zm1 0h-1v-1h1v1zm7-15v1h2v-1h3v-1h1v1h1v-2h-1v-1h-3v1h-1v2h-2zm4-1v-1h1v1h-1zm-4 13v1h1v-1h-1z" clip-rule="evenodd"/><path class="u" fill-rule="evenodd" d="M33 46v2h2v1h2v-1h-1v-1h-1v-3h2v2h2v-1h-1v-2h-3v1h-1v2h-1zm7-3v2h2v-1h-1v-1h-1zm0 4v1h6v1h-3v2h-1v-1h-1v1h1v1h1v1h2v-2h1v-1h1v-3h1v-6h-1v-1h-1v-1h-1v1h1v1h-3v1h3v1h-2v1h2v1h1v2h-4v-1h-1v1h-2zm-7 3v1h-1v3h1v-1h1v-1h2v1h1v1h1v-1h1v-1h1v-1h-1v-1h-6zm0 5v1h1v-1h-1zm-1 3v6h1v-1h1v-1h1v-4h1v1h2v1h2v-1h-2v-1h-2v-1h-1v1h-3zm12-1v4h4v-6h-1v1h-1v1h-2z" clip-rule="evenodd"/><path class="o" fill-rule="evenodd" d="M35 42v1h11v-1h-5v-1h2v-1h-5v1h-2v1h-1zm4 8v1h1v1h-1v1h-1v1h-1v1h-1v1h-1v1h1v1h2v1h2v1h2v1h2v-4h1v-4h-2v-1h-1v-1h1v-1h-1v1h-1v-1h-2zm2 3h1v1h-1v-1zm-6 5v4h3v-1h1v-1h-1v-1h-2v-1h-1zM51 9v1h11V9h-5V8h2V7h-5v1h-2v1h-1zm9 8h-1v2h1v1h1v-1h-1v-2zm-9-1v1h1v-1h-1zm3 1v1h1v1h-1v1h-1v1h-1v1h1v1h-1v1h1v1h-2v2h1v1h1v1h1v-1h2v-1h3v-2h2v-4h-2v-1h-1v-2h-1v-1h-3zm-1 8h1v1h-1v-1zm1 1h2v1h-2v-1zm3-6h1v1h-1v-1z" clip-rule="evenodd"/><path class="s" fill-rule="evenodd" d="M57 8v1h2V8h-2zm-9 14v2h1v1h3v-2h1v-1h-5zm9-2v1h1v-1h-1zm3 0v1h1v-1h-1zm-6-10v2h1v1h-2v-2h-2v3h1v1h1v1h-1v1h7v-1h3v1h-1v2h1v1h1v-1h1v-2h-1v-1h-1v-1h-6v-1h2v-1h1v1h4v-2h-1v-1h-2v-1h-3v1h1v1h-2v-2h-2z" clip-rule="evenodd"/><path class="u" fill-rule="evenodd" d="M49 13v2h2v1h2v-1h-1v-1h-1v-3h2v2h2v-1h-1v-2h-3v1h-1v2h-1zm7-3v2h2v-1h-1v-1h-1zm0 4v1h6v-1h-3v-1h-1v1h-2zm-8 6v2h4v-1h1v-1h1v-1h1v-1h-1v-1h-3v1h-1v1h-1v1h-1zm0 6v3h1v3h4v-1h-1v-2h1v-1h-1v-1h-1v-1h-3zm5-2h-1v1h1v1h1v1h2v-1h-2v-1h-1v-1zm4-7v1h1v2h1v1h1v-2h-1v-2h-2zm2 8v4h5v-6h-1v1h-1v1h-3zm2-6v2h1v1h1v-1h1v-2h-1v1h-1v-1h-1z" clip-rule="evenodd"/><path class="o" fill-rule="evenodd" d="M52 41v1h11v-1h-5v-1h2v-1h-5v1h-2v1h-1zm1 9v-2h-1v2h-1v3h-1v3h1v1h1v1h1v1h1v1h3v-1h-2v-2h2v-1h-2v-1h-1v-1h-1v-1h-1v-3h1zm7 1h-1v-1h-1v-1h-3v1h1v2h4v3h-1v2h2v-1h1v-3h-1v-1h-1v-1z" clip-rule="evenodd"/><path class="u" fill-rule="evenodd" d="M50 45v2h2v1h2v-1h-1v-1h-1v-3h2v2h2v-1h-1v-2h-3v1h-1v2h-1zm7-3v2h2v-1h-1v-1h-1zm0 4v1h6v-1h-3v-1h-1v1h-2zm-4 3v1h-1v3h1v1h1v1h1v1h1v-3h1v-1h-1v-2h-1v-1h-2zm8 3v-2h-1v-1h-2v1h1v1h1v1h-1v1h1v-1h1zm-4 4v1h-2v2h2v1h-3v-1h-1v2h-1v2h2v1h5v-2h-2v-2h1v1h2v-2h-1v-1h1v-1h-1v-1h-2z" clip-rule="evenodd"/><path class="s" fill-rule="evenodd" d="M58 40v1h2v-1h-2zm-3 2v2h1v1h-2v-2h-2v3h1v1h1v1h-1v1h7v-1h3v-1h-6v-1h2v-1h1v1h4v-2h-1v-1h-2v-1h-3v1h1v1h-2v-2h-2zm2 10v1h-1v3h3v-1h1v-2h-1v-1h-2z" clip-rule="evenodd"/><path class="u" fill-rule="evenodd" d="M50 77v2h2v2h-1v1h-1v2h1v-1h1v-2h1v3h1v1h1v1h1v1h3v-1h2v-2h-1v-1h-2v-2h-1v1h-1v-1h-3v-1h1v-1h-1v-1h-1v-3h2v2h2v-1h-1v-2h-3v1h-1v2h-1zm7-3v2h2v-1h-1v-1h-1zm0 4v1h6v-1h-3v-1h-1v1h-2zm-9 11v6h1v-1h1v-1h2v-4h-4zm9 3v4h6v-2h-2v-2h-4zm1-3v1h-2v1h3v-1h1v-1h1v-1h-1v1h-2z" clip-rule="evenodd"/><path class="o" fill-rule="evenodd" d="M52 73v1h11v-1h-5v-1h2v-1h-5v1h-2v1h-1zm0 8v2h-1v6h1v3h3v-1h1v-1h2v1h-1v1h4v-1h1v-2h-2v-1h1v-2h-2v1h-3v-1h-1v-1h-1v-1h-1v-3h-1zm6 9v-1h2c-.11 0 0 1 0 1h-2zm-2-9v1h1v-1h-1zm2 1v1h2v-1h-2z" clip-rule="evenodd"/><path class="s" fill-rule="evenodd" d="M58 72v1h2v-1h-2zm-3 2v2h1v1h-2v-2h-2v3h1v1h1v1h-1v1h7v-1h3v-1h-6v-1h2v-1h1v1h4v-2h-1v-1h-2v-1h-3v1h1v1h-2v-2h-2zm5 8v2h1v2h3v-3h-2v-1h-2z" clip-rule="evenodd"/><path class="u" fill-rule="evenodd" d="M34 86h-1v1h-1v4h1v1h1v-1h1v-1h2v-1h-1v-2h2v-1h-1v-1h-1v-3h2v2h2v-1h-1v-2h-3v1h-1v1h-1v3zm7-5v2h2v-1h-1v-1h-1zm0 4v1h6v-1h-3v-1h-1v1h-2zm2 3h-5v1h5v1h2v1h1v1h1v-1h1v-2h-1v-1h-2v1h-2v-1zm-7 5v1h-2v1h-2v1h6v-2h-1v-1h-1zm7 0v1h-1v2h6v-1h-2v-1h-2v-1h-1z" clip-rule="evenodd"/><path class="o" fill-rule="evenodd" d="M36 80v1h11v-1h-5v-1h2v-1h-5v1h-2v1h-1zm1 7h-1v2h1v1h1v2h-1v1h6v-1h-1v-2h1v-1h2v-1h2v-1h-3v1h-1v1h-6v-2zm-5 4v2h1v-2h-1zm15 0v2h1v-2h-1z" clip-rule="evenodd"/><path class="s" fill-rule="evenodd" d="M42 79v1h2v-1h-2zm-3 2v2h1v1h-2v-2h-2v3h1v1h1v1h-1v2h1v-1h6v-1h3v-1h-6v-1h2v-1h1v1h4v-2h-1v-1h-2v-1h-3v1h1v1h-2v-2h-2zm3 9v2h1v1h1v1h2v-1h1v-1h-1v-1h-1v-1h-3zm-7 0v1h-1v1h-1v1h1v1h2v-1h1v-1h1v-2h-3z" clip-rule="evenodd"/><path class="o" fill-rule="evenodd" d="M21 50v1h-1v1h9v-1h-3v-1h-5zm4 7h-2v1h-1v1h2v-1h1v1h-1v1h-1v1h-3v-1h-1v1h1v1h4v-1h4v-2h-1v-1h-2v-1zM5 82v1H4v1h9v-1h-3v-1H5zm1 7v1H5v2H4v2h3v-1h2v1h3v-2h-1v-2h-1v-1H9v1H7v-1H6zm0 1h1v1H6v-1zm3 0h1v1H9v-1z" clip-rule="evenodd"/><path class="s" fill-rule="evenodd" d="M10 84v2H9v-2H7v1H6v1h1v1H5v2h7v-1H9v-1h1v-1h1v1h3v-1h-1v-1h-2v-1h-1zm-4 6v1h1v-1H6zm3 0v1h1v-1H9zm-7 1v2h2v-1h1v-1H2zm9 0v1h1v1h2v-2h-3zm-7-6v2h1v-2H4z" clip-rule="evenodd"/><path class="u" fill-rule="evenodd" d="M3 85v3h2v-1h2v-1H6v-1h1v-1H4v1H3zm2 2H4v-2h1v2zm4-3v2h1v1H9v1h4v-1h-2v-1h-1v-2H9zm-7 6v1h3v-1h1v-1H3v1H2zm5-1v1h2v-1H7zm3 0v1h1v1h3v-1h-1v-1h-3zm-8 6v1h5v-2H3v1H2zm7-1v2h5v-1h-1v-1H9z" clip-rule="evenodd"/></svg>
